<?xml version="1.0" standalone="no"?>
<!DOCTYPE svg PUBLIC "-//W3C//DTD SVG 20010904//EN"
 "http://www.w3.org/TR/2001/REC-SVG-20010904/DTD/svg10.dtd">
<svg version="1.0" xmlns="http://www.w3.org/2000/svg"
 width="225.000000pt" height="224.000000pt" viewBox="0 0 225.000000 224.000000"
 preserveAspectRatio="xMidYMid meet">

<g transform="translate(0.000000,224.000000) scale(0.100000,-0.100000)"
fill="#000000" stroke="none">
<path d="M940 2066 c-376 -79 -665 -358 -755 -728 -9 -35 -18 -112 -22 -173
-13 -263 80 -513 264 -706 125 -130 257 -211 438 -265 82 -25 105 -28 255 -28
179 -1 219 7 374 66 169 65 351 221 454 388 194 315 187 723 -18 1029 -131
195 -331 340 -555 401 -102 28 -336 36 -435 16z m255 -775 c130 -60 156 -216
52 -308 -83 -73 -190 -64 -265 21 -51 59 -56 155 -10 222 27 40 108 84 152 84
17 0 49 -9 71 -19z m-369 -273 c31 -91 119 -175 207 -199 166 -45 327 36 389
196 l16 40 246 3 246 2 0 -28 c0 -46 -38 -182 -70 -251 -80 -171 -228 -316
-403 -396 -126 -57 -187 -69 -337 -69 -110 0 -149 4 -214 22 -235 67 -430 235
-531 456 -36 77 -65 184 -65 234 l0 32 251 -2 252 -3 13 -37z"/>
</g>
</svg>
